

<svg width="64" height="64" viewBox="0 0 64 64" fill="none" xmlns="http://www.w3.org/2000/svg">
<path d="M32.6293 0.996483L52.0722 8.0591C52.4788 8.20679 52.8202 8.49272 53.0366 8.86669L63.3819 26.7499C63.5982 27.1238 63.6756 27.5619 63.6005 27.9872L60.0076 48.3231C59.9325 48.7484 59.7096 49.1336 59.3782 49.4112L43.5282 62.6846C43.1968 62.9622 42.7779 63.1143 42.3452 63.1143H21.6546C21.2219 63.1143 20.8031 62.9622 20.4716 62.6846L4.62164 49.4112C4.29019 49.1336 4.06733 48.7484 3.9922 48.3231L0.399301 27.9872C0.324168 27.5619 0.401566 27.1238 0.617902 26.7499L10.9632 8.86669C11.1796 8.49272 11.521 8.20679 11.9276 8.0591L31.3705 0.996483C31.777 0.848793 32.2228 0.848793 32.6293 0.996483Z" fill="#7661D7"/>
<path d="M57.5833 16.726L63.3821 26.7499C63.5984 27.1239 63.6758 27.562 63.6007 27.9872L60.0078 48.3232C59.9326 48.7485 59.7098 49.1337 59.3783 49.4113L43.5284 62.6846C43.1969 62.9622 42.7781 63.1143 42.3454 63.1143H21.6547C21.222 63.1143 20.8032 62.9622 20.4718 62.6846L4.62179 49.4113C4.29034 49.1337 4.06749 48.7485 3.99235 48.3232L3.87451 47.6562L57.5833 16.726Z" fill="#ADA0E7"/>
</svg>
