<svg width="16" height="16" viewBox="0 0 16 16" fill="none" xmlns="http://www.w3.org/2000/svg">
<path fill-rule="evenodd" clip-rule="evenodd" d="M3.78181 5.66771C3.78181 3.25774 5.67036 1.30407 8.00001 1.30407C10.3297 1.30407 12.2182 3.25774 12.2182 5.66771V10.1845C12.2182 11.6998 11.1863 12.9657 9.80988 13.2713C9.52955 12.5203 8.82492 11.9875 8 11.9875C6.9289 11.9875 6.0606 12.8857 6.0606 13.9937C6.0606 15.1018 6.9289 16 8 16C8.87054 16 9.60711 15.4067 9.85243 14.5896C11.6718 14.2887 13.1113 12.8106 13.4182 10.9342H14.1091C15.1534 10.9342 16 10.0584 16 8.97807V7.07212C16 5.99179 15.1534 5.11601 14.1091 5.11601L13.4532 5.11601C13.1851 2.24471 10.8459 0 8.00001 0C5.15409 0 2.81497 2.24469 2.54683 5.11596H1.89092C0.846593 5.11596 0 5.99174 0 7.07207V8.97803C0 10.0584 0.846592 10.9341 1.89092 10.9341H3.12486C3.13369 10.9345 3.14258 10.9347 3.1515 10.9347C3.49961 10.9347 3.78181 10.6428 3.78181 10.2827V5.66771ZM13.4788 6.42008V9.63011H14.1091C14.4572 9.63011 14.7394 9.33818 14.7394 8.97807V7.07212C14.7394 6.71201 14.4572 6.42008 14.1091 6.42008H13.4788ZM1.89092 6.42003H2.5212V9.63006H1.89092C1.54281 9.63006 1.26061 9.33813 1.26061 8.97803V7.07207C1.26061 6.71196 1.54281 6.42003 1.89092 6.42003ZM8.67879 13.9937C8.67879 14.3815 8.37489 14.6959 8 14.6959C7.62511 14.6959 7.32121 14.3815 7.32121 13.9937C7.32121 13.6059 7.62511 13.2915 8 13.2915C8.37489 13.2915 8.67879 13.6059 8.67879 13.9937Z" fill="#5A7494"/>
</svg>
