<svg width="18" height="18" viewBox="0 0 18 18" fill="none" xmlns="http://www.w3.org/2000/svg">
<path fill-rule="evenodd" clip-rule="evenodd" d="M12.3004 3.30034C12.3004 5.12307 10.8228 6.60069 9.00005 6.60069C7.17732 6.60069 5.69971 5.12307 5.69971 3.30034C5.69971 1.47761 7.17732 0 9.00005 0C10.8228 0 12.3004 1.47761 12.3004 3.30034ZM11.0004 3.30034C11.0004 4.4051 10.1048 5.30069 9.00005 5.30069C7.89529 5.30069 6.99971 4.4051 6.99971 3.30034C6.99971 2.19558 7.89529 1.3 9.00005 1.3C10.1048 1.3 11.0004 2.19558 11.0004 3.30034Z" fill="#5A7494"/>
<path fill-rule="evenodd" clip-rule="evenodd" d="M12.3022 14.698C12.3022 16.5217 10.8238 18.0001 9.00009 18.0001C7.1764 18.0001 5.698 16.5217 5.698 14.698C5.698 12.8743 7.1764 11.3959 9.00009 11.3959C10.8238 11.3959 12.3022 12.8743 12.3022 14.698ZM11.0022 14.698C11.0022 15.8037 10.1058 16.7001 9.00009 16.7001C7.89437 16.7001 6.998 15.8037 6.998 14.698C6.998 13.5922 7.89437 12.6959 9.00009 12.6959C10.1058 12.6959 11.0022 13.5922 11.0022 14.698Z" fill="#5A7494"/>
<path fill-rule="evenodd" clip-rule="evenodd" d="M6.6003 9.00005C6.6003 7.17745 5.12279 5.69993 3.30018 5.69993C1.47757 5.69993 6.10352e-05 7.17745 6.10352e-05 9.00005C6.10352e-05 10.8227 1.47757 12.3002 3.30018 12.3002C5.12279 12.3002 6.6003 10.8227 6.6003 9.00005ZM5.3003 9.00005C5.3003 7.89542 4.40482 6.99993 3.30018 6.99993C2.19554 6.99993 1.30006 7.89542 1.30006 9.00005C1.30006 10.1047 2.19554 11.0002 3.30018 11.0002C4.40482 11.0002 5.3003 10.1047 5.3003 9.00005Z" fill="#5A7494"/>
<path fill-rule="evenodd" clip-rule="evenodd" d="M14.701 5.70102C16.523 5.70102 18 7.17804 18 9.00004C18 10.822 16.523 12.2991 14.701 12.2991C12.879 12.2991 11.402 10.822 11.402 9.00005C11.402 7.17804 12.879 5.70102 14.701 5.70102ZM14.701 7.00102C15.805 7.00102 16.7 7.89601 16.7 9.00005C16.7 10.1041 15.805 10.9991 14.701 10.9991C13.597 10.9991 12.702 10.1041 12.702 9.00005C12.702 7.89601 13.597 7.00102 14.701 7.00102Z" fill="#5A7494"/>
</svg>
