<svg width="18" height="18" viewBox="0 0 18 18" fill="none" xmlns="http://www.w3.org/2000/svg">
<path fill-rule="evenodd" clip-rule="evenodd" d="M0.350098 8.99998C0.350098 4.22271 4.22283 0.349976 9.0001 0.349976C13.7774 0.349976 17.6501 4.22271 17.6501 8.99998C17.6501 13.7772 13.7774 17.65 9.0001 17.65C4.22283 17.65 0.350098 13.7772 0.350098 8.99998ZM4.51443 3.59502C4.38991 3.4705 4.39861 3.26556 4.53848 3.15856C5.53177 2.39874 6.72454 1.88654 8.0246 1.71414C8.19909 1.691 8.3501 1.82974 8.3501 2.00576V4.61677C8.3501 4.76457 8.24214 4.88918 8.09779 4.92097C7.61288 5.02775 7.15958 5.2188 6.75402 5.47798C6.62952 5.55754 6.46513 5.54572 6.36066 5.44125L4.51443 3.59502ZM5.47814 6.75385C5.5577 6.62934 5.54589 6.46495 5.44141 6.36047L3.59518 4.51425C3.47066 4.38973 3.26572 4.39844 3.15873 4.5383C2.39887 5.53162 1.88665 6.72443 1.71426 8.02453C1.69112 8.19902 1.82986 8.35002 2.00588 8.35002H4.61688C4.76468 8.35002 4.88929 8.24206 4.92108 8.09772C5.02787 7.61277 5.21893 7.15943 5.47814 6.75385ZM4.92108 9.90233C4.8893 9.75799 4.76468 9.65002 4.61688 9.65002H2.00589C1.82987 9.65002 1.69113 9.80103 1.71427 9.97552C1.88668 11.2756 2.3989 12.4684 3.15874 13.4617C3.26573 13.6015 3.47067 13.6102 3.59519 13.4857L5.44138 11.6395C5.54586 11.535 5.55767 11.3707 5.47811 11.2461C5.21892 10.8406 5.02787 10.3873 4.92108 9.90233ZM6.75398 12.522C6.62948 12.4425 6.46509 12.4543 6.36061 12.5588L4.51443 14.4049C4.38991 14.5295 4.39862 14.7344 4.53849 14.8414C5.53178 15.6012 6.72455 16.1134 8.0246 16.2858C8.19909 16.3089 8.3501 16.1702 8.3501 15.9942V13.3833C8.3501 13.2355 8.24214 13.1109 8.09779 13.0791C7.61287 12.9723 7.15955 12.7812 6.75398 12.522ZM9.90241 13.0791C9.75806 13.1109 9.6501 13.2355 9.6501 13.3833V15.9942C9.6501 16.1702 9.8011 16.3089 9.9756 16.2858C11.2757 16.1134 12.4685 15.6012 13.4618 14.8413C13.6016 14.7344 13.6103 14.5294 13.4858 14.4049L11.6397 12.5588C11.5352 12.4543 11.3708 12.4425 11.2463 12.522C10.8407 12.7812 10.3874 12.9723 9.90241 13.0791ZM12.5222 11.2461C12.4426 11.3706 12.4544 11.535 12.5589 11.6395L14.4051 13.4856C14.5296 13.6102 14.7345 13.6015 14.8415 13.4616C15.6013 12.4683 16.1135 11.2756 16.2859 9.97552C16.3091 9.80103 16.1703 9.65002 15.9943 9.65002H13.3834C13.2356 9.65002 13.111 9.75799 13.0792 9.90233C12.9724 10.3873 12.7814 10.8406 12.5222 11.2461ZM13.0792 8.09771C13.111 8.24206 13.2356 8.35002 13.3834 8.35002H15.9943C16.1703 8.35002 16.3091 8.19902 16.2859 8.02453C16.1135 6.72446 15.6013 5.53167 14.8415 4.53836C14.7345 4.3985 14.5296 4.38979 14.4051 4.51431L12.5589 6.36049C12.4544 6.46497 12.4426 6.62936 12.5222 6.75386C12.7814 7.15944 12.9724 7.61277 13.0792 8.09771ZM11.2463 5.47799C11.3708 5.55755 11.5352 5.54573 11.6396 5.44125L13.4858 3.59506C13.6103 3.47055 13.6016 3.2656 13.4618 3.15861C12.4685 2.39876 11.2757 1.88654 9.9756 1.71414C9.8011 1.691 9.6501 1.82974 9.6501 2.00576V4.61675C9.6501 4.76455 9.75806 4.88916 9.90241 4.92095C10.3874 5.02773 10.8407 5.21879 11.2463 5.47799ZM6.12336 9.00002C6.12336 7.41122 7.41134 6.12324 9.00014 6.12324C10.5889 6.12324 11.8769 7.41122 11.8769 9.00002C11.8769 10.5888 10.5889 11.8768 9.00014 11.8768C7.41134 11.8768 6.12336 10.5888 6.12336 9.00002Z" fill="#E37602"/>
</svg>
