<svg width="20" height="19" viewBox="0 0 20 19" fill="none" xmlns="http://www.w3.org/2000/svg">
<path d="M9.99992 2.97L11.9199 6.87L12.2199 7.48L12.8999 7.58L17.1999 8.21L14.0899 11.25L13.5999 11.73L13.7199 12.4L14.4599 16.69L10.6099 14.67L9.99992 14.34L9.39992 14.66L5.54992 16.68L6.28992 12.39L6.40992 11.72L5.91992 11.24L2.80992 8.2L7.10992 7.57L7.78992 7.47L8.08992 6.86L9.99992 2.97ZM9.99992 0.919998C9.74992 0.919998 9.49992 1.05 9.36992 1.31L6.90992 6.3L1.39992 7.1C0.829923 7.18 0.599922 7.89 1.00992 8.29L4.99992 12.17L4.05992 17.65C3.97992 18.1 4.33992 18.47 4.74992 18.47C4.85992 18.47 4.96992 18.44 5.07992 18.39L9.99992 15.81L14.9199 18.4C15.0299 18.46 15.1399 18.48 15.2499 18.48C15.6599 18.48 16.0199 18.11 15.9399 17.66L14.9999 12.17L18.9799 8.29C19.3999 7.89 19.1699 7.18 18.5899 7.1L13.0799 6.3L10.6199 1.31C10.4999 1.05 10.2499 0.919998 9.99992 0.919998Z" fill="#E37602"/>
</svg>
