<svg width="40" height="40" viewBox="0 0 40 40" fill="none" xmlns="http://www.w3.org/2000/svg">
<g clip-path="url(#clip0)">
<rect width="40" height="40" rx="20" fill="#00BD93"/>
<path d="M26.1834 34.56C23.5034 34.56 21.7834 33.36 21.3034 30.12H13.5434C14.0234 36.72 18.7034 40.52 26.1834 40.52C32.6234 40.52 38.4234 37.52 38.4234 31.64C38.4234 28.24 36.5434 25.88 33.7834 24.92C35.8234 23.96 37.5434 21.4 37.5434 18.28C37.5434 13.32 33.0634 10.32 26.6634 10.32C19.1034 10.32 14.3434 13.72 13.8634 20.28H21.6234C21.8234 17.4 23.8634 16.24 25.9834 16.24C27.7434 16.24 29.3834 17.12 29.3834 18.92C29.3834 20.84 27.8234 22.24 24.6234 22.24H23.3034V28.68H24.5034C28.3434 28.68 30.1434 29.44 30.1434 31.68C30.1434 33.28 28.7834 34.56 26.1834 34.56Z" fill="white"/>
</g>
<defs>
<clipPath id="clip0">
<rect width="40" height="40" rx="20" fill="white"/>
</clipPath>
</defs>
</svg>
