<svg width="68" height="60" viewBox="0 0 68 60" fill="none" xmlns="http://www.w3.org/2000/svg">
<path d="M67.6823 29.0218C68.0297 29.6271 68.0297 30.3729 67.6823 30.9782L51.6833 58.8504C51.3359 59.4557 50.6937 59.8286 49.9989 59.8286H18.0012C17.3063 59.8286 16.6639 59.4557 16.3164 58.8504L0.317724 30.9782C-0.0297363 30.3729 -0.0297362 29.6271 0.317724 29.0218L16.3164 1.14961C16.6639 0.544286 17.3063 0.171429 18.0012 0.171429L49.9989 0.17143C50.6937 0.17143 51.3359 0.544288 51.6833 1.14961L67.6823 29.0218Z" fill="#ECAB29"/>
<path d="M67.6822 30.9782C68.0296 30.3729 68.0296 29.6271 67.6822 29.0218L60.6327 16.7408L9.19263 46.4398L16.3164 58.8504C16.6638 59.4557 17.3062 59.8286 18.0012 59.8286H49.9988C50.6937 59.8286 51.3358 59.4557 51.6833 58.8504L67.6822 30.9782Z" fill="#F28535"/>
</svg>
