<svg width="68" height="68" viewBox="0 0 68 68" fill="none" xmlns="http://www.w3.org/2000/svg">
<path d="M33.9999 0.314285C41.08 4.46276 47.4272 9.34414 53.0415 14.9584C58.6558 20.5727 63.5371 26.9199 67.6856 34C63.5371 41.0801 58.6558 47.4273 53.0415 53.0416C47.4272 58.6559 41.08 63.5372 33.9999 67.6857C26.9198 63.5372 20.5726 58.6559 14.9583 53.0416C9.34406 47.4273 4.46268 41.0801 0.314209 34C4.46268 26.9199 9.34406 20.5727 14.9583 14.9584C20.5726 9.34414 26.9198 4.46276 33.9999 0.314285Z" fill="#0BA886"/>
<path opacity="0.7" d="M9.42676 21.01C11.184 18.9061 13.0278 16.889 14.9584 14.9584C20.5727 9.34414 26.9198 4.46276 33.9999 0.314285C41.08 4.46276 47.4272 9.34414 53.0415 14.9584C54.9696 16.8865 56.8112 18.901 58.5663 21.0019C56.3547 32.5063 46.1949 41.2 33.9958 41.2C21.7995 41.2 11.6417 32.5103 9.42676 21.01Z" fill="#CCF2E9"/>
</svg>
