<svg width="60" height="68" viewBox="0 0 60 68" fill="none" xmlns="http://www.w3.org/2000/svg">
<path d="M29.0218 0.317727C29.627 -0.02972 30.3728 -0.02972 30.9781 0.317731L58.8504 16.3166C59.4556 16.6641 59.8285 17.3062 59.8285 18.0011V49.9988C59.8285 50.6937 59.4556 51.3361 58.8504 51.6836L30.9781 67.6823C30.3728 68.0297 29.627 68.0297 29.0218 67.6823L1.14957 51.6836C0.544244 51.3361 0.171387 50.6937 0.171387 49.9988V18.0011C0.171387 17.3062 0.544244 16.6641 1.14957 16.3166L29.0218 0.317727Z" fill="#C451AB"/>
<path d="M59.8285 31.2119V49.9987C59.8285 50.6936 59.4556 51.336 58.8503 51.6835L30.9781 67.6822C30.3728 68.0297 29.627 68.0297 29.0217 67.6822L12.854 58.4019L59.8285 31.2119Z" fill="#EEA2DE"/>
</svg>
