<svg width="46" height="45" viewBox="0 0 46 45" fill="none" xmlns="http://www.w3.org/2000/svg">
<path d="M43.7442 23.9265C43.7442 35.8502 34.4853 45.2429 22.6567 44.8672C10.3574 44.4915 0 33.7739 0 20.9406C0 8.14679 10.3377 -1.16677 22.6567 0.118538C34.4853 1.3643 43.7442 12.0027 43.7442 23.9265Z" fill="#F28535"/>
<path d="M46.0001 22.8389C46.0001 34.2485 37.1532 43.2061 25.8543 42.8304C14.1238 42.4547 4.25684 32.2315 4.25684 20.0112C4.25684 7.79084 14.1238 -1.10747 25.8543 0.118518C37.1532 1.28519 46.0001 11.4293 46.0001 22.8389Z" fill="#EC4559"/>
<path d="M45.3331 22.7994C45.3331 33.8333 36.7608 42.4745 25.8542 42.0988C14.516 41.7231 5.02173 31.8361 5.02173 20.0508C5.02173 8.26545 14.516 -0.316483 25.8542 0.83041C36.7804 1.95753 45.3331 11.7654 45.3331 22.7994Z" fill="#F4CD7F"/>
<path d="M28.2198 9.64779L20.5558 9.54993L20.5166 11.9573L20.497 14.032L20.4186 20.1777L16.7925 20.1385L16.7337 24.5815L20.3598 24.6206L20.3402 26.6561L16.7141 26.617L16.6553 31.0599L20.2814 31.099L20.2422 34.2698L24.6916 34.3285L24.7308 31.1578L31.3559 31.2361L31.4147 26.7931L24.7896 26.7148L24.8092 24.6793L28.0238 24.7185C32.1791 24.7772 35.6289 21.4108 35.6877 17.2614C35.7857 13.1121 32.4143 9.68693 28.2198 9.64779ZM28.0826 20.2756L24.868 20.2364L24.9464 14.0516L28.161 14.0907C29.8662 14.1103 31.2579 15.5391 31.2383 17.2418C31.2187 18.9446 29.7878 20.2951 28.0826 20.2756Z" fill="#E37602"/>
</svg>
