<svg width="22" height="22" viewBox="0 0 22 22" fill="none" xmlns="http://www.w3.org/2000/svg">
<path fill-rule="evenodd" clip-rule="evenodd" d="M16.3938 1.17843C17.0707 0.501519 18.1682 0.501518 18.8451 1.17843L21.1079 3.44117C21.7848 4.11808 21.7848 5.21556 21.1079 5.89247L7.14474 19.8556C6.61464 20.3857 5.94623 20.7562 5.21575 20.9248L2.90761 21.4574C1.65949 21.7454 0.540884 20.6268 0.828913 19.3787L1.36156 17.0706C1.53013 16.3401 1.90059 15.6717 2.4307 15.1416L16.3938 1.17843ZM17.6195 2.40408L19.8822 4.66682L17.7207 6.82834L15.458 4.56559L17.6195 2.40408ZM14.2323 5.79125L3.65635 16.3672C3.35596 16.6676 3.14603 17.0464 3.05051 17.4603L2.51786 19.7685L4.826 19.2358C5.23994 19.1403 5.6187 18.9304 5.91909 18.63L16.4951 8.05399L14.2323 5.79125Z" fill="#3195DD"/>
</svg>
