<svg width="658" height="218" viewBox="0 0 658 218" fill="none" xmlns="http://www.w3.org/2000/svg">
<path opacity="0.78" d="M330.405 15.1283L389.274 36.5124C390.505 36.9596 391.539 37.8253 392.194 38.9576L423.517 93.1038C424.172 94.2361 424.407 95.5625 424.179 96.8501L413.301 158.423C413.073 159.711 412.398 160.877 411.395 161.717L363.405 201.906C362.401 202.747 361.133 203.207 359.823 203.207H297.176C295.866 203.207 294.598 202.747 293.595 201.906L245.604 161.717C244.601 160.877 243.926 159.711 243.699 158.423L232.82 96.8501C232.593 95.5625 232.827 94.2361 233.482 93.1038L264.805 38.9576C265.46 37.8253 266.494 36.9596 267.725 36.5124L326.594 15.1283C327.825 14.6812 329.174 14.6812 330.405 15.1283Z" fill="white"/>
<path d="M401.637 65.2433C404.027 63.8671 407.079 64.6855 408.46 67.0725L423.519 93.1031C424.174 94.2354 424.408 95.5618 424.181 96.8494L413.302 158.422C413.075 159.71 412.4 160.876 411.396 161.717L363.406 201.905C362.403 202.746 361.135 203.207 359.825 203.207H297.178C295.868 203.207 294.6 202.746 293.596 201.905L245.606 161.717C244.602 160.876 243.928 159.71 243.7 158.422C243.486 157.21 244.054 155.994 245.12 155.379L401.637 65.2433Z" fill="#7EC7FB"/>
<path d="M103.104 55.4V129.992H43.488L103.104 55.4ZM178.272 129.992H142.56V5H103.68L0 132.584V163.688H103.104V213.8H142.56V163.688H178.272V129.992Z" fill="#7EC7FB"/>
<path d="M582.604 55.4V129.992H522.988L582.604 55.4ZM657.772 129.992H622.06V5H583.18L479.5 132.584V163.688H582.604V213.8H622.06V163.688H657.772V129.992Z" fill="#7EC7FB"/>
</svg>
