<svg width="22" height="22" viewBox="0 0 22 22" fill="none" xmlns="http://www.w3.org/2000/svg">
<path fill-rule="evenodd" clip-rule="evenodd" d="M5.19997 7.53333C5.19997 4.33008 7.79672 1.73333 11 1.73333C14.2032 1.73333 16.8 4.33008 16.8 7.53333V13.537C16.8 15.551 15.3812 17.2336 13.4885 17.6398C13.1031 16.6415 12.1342 15.9333 11 15.9333C9.5272 15.9333 8.33329 17.1273 8.33329 18.6C8.33329 20.0728 9.5272 21.2667 11 21.2667C12.1969 21.2667 13.2097 20.478 13.547 19.392C16.0486 18.9921 18.0279 17.0275 18.4499 14.5334H19.3999C20.8359 14.5334 21.9999 13.3693 21.9999 11.9334V9.40003C21.9999 7.96409 20.8359 6.80003 19.3999 6.80003L18.4981 6.80003C18.1294 2.9836 14.9131 0 11 0C7.08685 0 3.87057 2.98357 3.50187 6.79997H2.6C1.16406 6.79997 0 7.96403 0 9.39997V11.9333C0 13.3692 1.16406 14.5333 2.6 14.5333H4.29666C4.30881 14.5338 4.32103 14.5341 4.3333 14.5341C4.81195 14.5341 5.19997 14.146 5.19997 13.6674V7.53333ZM18.5333 8.53337V12.8H19.3999C19.8786 12.8 20.2666 12.412 20.2666 11.9334V9.40003C20.2666 8.92138 19.8786 8.53337 19.3999 8.53337H18.5333ZM2.6 8.5333H3.46663V12.8H2.6C2.12135 12.8 1.73333 12.4119 1.73333 11.9333V9.39997C1.73333 8.92132 2.12135 8.5333 2.6 8.5333ZM11.9333 18.6C11.9333 19.1155 11.5154 19.5333 11 19.5333C10.4845 19.5333 10.0666 19.1155 10.0666 18.6C10.0666 18.0845 10.4845 17.6667 11 17.6667C11.5154 17.6667 11.9333 18.0845 11.9333 18.6Z" fill="#00BD93"/>
</svg>
