<svg width="20" height="19" viewBox="0 0 20 19" fill="none" xmlns="http://www.w3.org/2000/svg">
<path d="M9.99998 2.97004L11.92 6.87004L12.22 7.48004L12.9 7.58004L17.2 8.21004L14.09 11.25L13.6 11.73L13.72 12.4L14.46 16.69L10.61 14.67L9.99998 14.34L9.39998 14.66L5.54998 16.68L6.28998 12.39L6.40998 11.72L5.91998 11.24L2.80998 8.20004L7.10998 7.57004L7.78998 7.47005L8.08998 6.86004L9.99998 2.97004ZM9.99998 0.920044C9.74998 0.920044 9.49998 1.05004 9.36998 1.31004L6.90998 6.30004L1.39998 7.10005C0.829984 7.18005 0.599984 7.89004 1.00998 8.29004L4.99998 12.17L4.05998 17.65C3.97998 18.1 4.33998 18.47 4.74998 18.47C4.85998 18.47 4.96998 18.44 5.07998 18.39L9.99998 15.81L14.92 18.4C15.03 18.46 15.14 18.48 15.25 18.48C15.66 18.48 16.02 18.11 15.94 17.66L15 12.17L18.98 8.29004C19.4 7.89004 19.17 7.18005 18.59 7.10005L13.08 6.30004L10.62 1.31004C10.5 1.05004 10.25 0.920044 9.99998 0.920044Z" fill="#5A7494"/>
</svg>
