<svg width="116" height="18" viewBox="0 0 116 18" fill="none" xmlns="http://www.w3.org/2000/svg">
<path fill-rule="evenodd" clip-rule="evenodd" d="M14.2711 2.29252C14.2711 1.66628 14.4378 1.15057 14.7707 0.744741C15.1042 0.339128 15.5925 0.136322 16.2358 0.136322C16.8794 0.136322 17.3734 0.339128 17.7181 0.744741C18.0629 1.15057 18.2352 1.66628 18.2352 2.29252V7.75195C18.2352 9.18899 18.0856 10.4875 17.787 11.6466C17.4882 12.806 17.0056 13.8665 16.3392 14.8287C15.673 15.7908 14.7307 16.5386 13.5128 17.0717C12.2948 17.6048 10.847 17.8713 9.16931 17.8713C5.92901 17.8713 3.59084 16.9499 2.15417 15.1069C0.717916 13.2636 0 10.8352 0 7.82153V2.29252C0 1.66628 0.177902 1.15057 0.534126 0.744741C0.890771 0.339128 1.39041 0.136322 2.03389 0.136322C2.70028 0.136322 3.21716 0.339128 3.58496 0.744741C3.95275 1.15057 4.13654 1.66628 4.13654 2.29252V7.99549C4.13654 12.0987 5.82534 14.1503 9.20359 14.1503C12.5818 14.1503 14.2711 12.0756 14.2711 7.92569V2.29252Z" fill="#FF5D6A"/>
<path fill-rule="evenodd" clip-rule="evenodd" d="M89.7466 7.83418C90.4912 7.45551 90.8638 6.84603 90.8638 6.00595C90.8638 4.51885 89.4244 3.7753 86.5462 3.7753C86.023 3.7753 83.291 3.81645 82.2844 3.89919V8.31977C82.9087 8.37471 85.5598 8.40229 86.3046 8.40229C87.8546 8.40229 89.0019 8.21285 89.7466 7.83418ZM78.3018 2.35353C78.3018 1.31744 78.9034 0.690563 80.1062 0.472483C81.3738 0.236158 84.6227 0.117996 86.5778 0.117996C92.1419 0.117996 94.924 2.00838 94.924 5.78893C94.924 7.07938 94.559 8.17 93.8282 9.06056C93.0981 9.95113 92.0845 10.6421 90.6214 10.9917L94.1378 14.5268C94.769 15.251 95.0409 16.4855 93.6598 17.1669C92.5278 17.7254 91.2806 17.3321 90.369 16.2445L86.202 11.5413C85.9229 11.5778 82.8015 11.5598 82.2211 11.487V15.7266C82.2211 16.2173 82.0497 16.6172 81.7059 16.9261C81.362 17.235 80.9999 17.3896 80.3983 17.3896C79.7754 17.3896 79.1343 17.235 78.8014 16.9261C78.4683 16.6172 78.3018 16.2173 78.3018 15.7266V2.35353Z" fill="#FF5D6A"/>
<path fill-rule="evenodd" clip-rule="evenodd" d="M111.684 2.29252C111.684 1.66628 111.851 1.15057 112.184 0.744741C112.517 0.339128 113.006 0.136322 113.649 0.136322C114.293 0.136322 114.786 0.339128 115.131 0.744741C115.476 1.15057 115.648 1.66628 115.648 2.29252V7.75195C115.648 9.18899 115.499 10.4875 115.2 11.6466C114.901 12.806 114.419 13.8665 113.752 14.8287C113.086 15.7908 112.144 16.5386 110.926 17.0717C109.708 17.6048 108.26 17.8713 106.582 17.8713C103.342 17.8713 101.004 16.9499 99.5673 15.1069C98.131 13.2636 97.4131 10.8352 97.4131 7.82153V2.29252C97.4131 1.66628 97.591 1.15057 97.9472 0.744741C98.3039 0.339128 98.8035 0.136322 99.447 0.136322C100.113 0.136322 100.63 0.339128 100.998 0.744741C101.366 1.15057 101.55 1.66628 101.55 2.29252V7.99549C101.55 12.0987 103.238 14.1503 106.617 14.1503C109.995 14.1503 111.684 12.0756 111.684 7.92569V2.29252Z" fill="#FF5D6A"/>
<path fill-rule="evenodd" clip-rule="evenodd" d="M30.1075 17.8713C27.0458 17.8713 24.6508 17.1063 22.9214 15.5764C21.1921 14.0464 20.3271 11.9019 20.3271 9.14321C20.3271 6.36099 21.2276 4.16449 23.0274 2.55307C24.8279 0.941651 27.287 0.136154 30.4053 0.136154C32.8152 0.136154 34.6436 0.460517 35.8908 1.10967C37.1096 1.73569 37.4642 2.51276 36.9538 3.43982C36.4721 4.27459 35.5367 4.62823 34.1476 4.28074C32.7018 3.93304 31.0873 3.64835 30.1237 3.64835C28.4793 3.64835 27.1898 4.13542 26.2538 5.10894C25.3183 6.08266 24.8508 7.42721 24.8508 9.14321C24.8508 10.7659 25.3395 12.041 26.318 12.9681C27.2958 13.8956 28.5788 14.3593 30.1662 14.3593C31.3003 14.3593 33.0703 14.0347 34.6575 13.3854C36.0185 12.8523 36.9824 12.9681 37.5491 13.7331C38.2015 14.6141 37.918 15.4601 36.699 16.272C35.0545 17.3382 32.8577 17.8713 30.1075 17.8713Z" fill="#FF5D6A"/>
<path fill-rule="evenodd" clip-rule="evenodd" d="M63.669 0.57384C64.0711 0.191563 64.6172 0 65.3063 0C65.9958 0 66.5476 0.191563 66.9613 0.57384C67.3747 0.956541 67.5816 1.47225 67.5816 2.12162C67.5816 2.79389 67.3747 3.31512 66.9613 3.68615C66.5476 4.05718 65.9958 4.24281 65.3063 4.24281C64.6172 4.24281 64.0711 4.06291 63.669 3.70355C63.267 3.34418 63.0659 2.8168 63.0659 2.12162C63.0659 1.47225 63.267 0.956541 63.669 0.57384Z" fill="#FF5D6A"/>
<path fill-rule="evenodd" clip-rule="evenodd" d="M59.468 0.710101C59.1234 0.327399 58.641 0.136261 58.0202 0.136261C57.3999 0.136261 56.923 0.327399 56.5899 0.710101C56.2566 1.09238 56.0898 1.57394 56.0898 2.15329V6.86514H44.4307V2.15329C44.4307 1.57394 44.2585 1.09238 43.9134 0.710101C43.569 0.327399 43.0863 0.136261 42.4656 0.136261C41.8452 0.136261 41.3683 0.327399 41.0352 0.710101C40.7019 1.09238 40.5352 1.57394 40.5352 2.15329V15.5067C40.5352 16.0865 40.7019 16.5676 41.0352 16.9499C41.3683 17.3326 41.8452 17.5237 42.4656 17.5237C43.0863 17.5237 43.569 17.3326 43.9134 16.9499C44.2585 16.5676 44.4307 16.0865 44.4307 15.5067V10.7948H56.0898V15.5067C56.0898 16.0865 56.2566 16.5676 56.5899 16.9499C56.923 17.3326 57.3999 17.5237 58.0202 17.5237C58.641 17.5237 59.1234 17.3326 59.468 16.9499C59.8131 16.5676 59.9853 16.0865 59.9853 15.5067V2.15329C59.9853 1.57394 59.8131 1.09238 59.468 0.710101Z" fill="#FF5D6A"/>
<path fill-rule="evenodd" clip-rule="evenodd" d="M63.376 8.27693C63.376 7.69737 63.5427 7.21602 63.876 6.83374C64.2091 6.45104 64.6859 6.2599 65.3064 6.2599C65.9272 6.2599 66.4096 6.45104 66.7542 6.83374C67.0991 7.21602 67.2713 7.69737 67.2713 8.27693V15.5067C67.2713 16.0865 67.0991 16.5676 66.7542 16.9499C66.4096 17.3326 65.9272 17.5237 65.3064 17.5237C64.6859 17.5237 64.2091 17.3326 63.876 16.9499C63.5427 16.5676 63.376 16.0865 63.376 15.5067V8.27693Z" fill="#FF5D6A"/>
<path fill-rule="evenodd" clip-rule="evenodd" d="M71.0111 13.4027C71.4365 12.9278 72.0165 12.6897 72.7521 12.6897C73.4875 12.6897 74.0735 12.9278 74.5101 13.4027C74.9466 13.8782 75.1651 14.452 75.1651 15.1243C75.1651 15.8199 74.9525 16.3933 74.5271 16.8454C74.1023 17.2974 73.5104 17.5236 72.7521 17.5236C71.9936 17.5236 71.4077 17.2974 70.9939 16.8454C70.5802 16.3933 70.3735 15.8199 70.3735 15.1243C70.3735 14.452 70.5861 13.8782 71.0111 13.4027Z" fill="#FF5D6A"/>
</svg>
